<svg enable-background="new 0 0 512 512" viewBox="0 0 512 512" xmlns="http://www.w3.org/2000/svg"><circle cx="256" cy="256" fill="#f0c48a" r="207"/><path d="m463.823 446.503-42.311-79.245v-275.893c0-14.172 11.489-25.66 25.66-25.66h33.301c14.172 0 25.66 11.489 25.66 25.66v275.892z" fill="#a4cff2"/><path d="m480.746 366.456-16.923 32.187h-21.75l-3.151 2.566 25.046 45.189 42.438-78.955z" fill="#7babf1"/><path d="m480.746 134.525h25.66v231.931h-25.66z" fill="#7babf1"/><path d="m504.149 135.518h-82.667l.03-37.85c0-21.402 15.365-32.123 36.767-32.123h7.118c29.694.16 38.752 15.395 38.752 36.797z" fill="#fd919e"/><path d="m506.406 135.512h-25.661v-70.073c14.172 0 25.661 11.489 25.661 25.66z" fill="#e8677d"/><g fill="#4c4372"><path d="m506.134 140.985h-84.622c-3.239 0-5.866-2.626-5.866-5.866s2.626-5.866 5.866-5.866h84.622c3.239 0 5.866 2.626 5.866 5.866s-2.626 5.866-5.866 5.866z"/><path d="m506.134 371.978h-84.622c-3.239 0-5.866-2.626-5.866-5.866s2.626-5.866 5.866-5.866h84.622c3.239 0 5.866 2.626 5.866 5.866s-2.626 5.866-5.866 5.866z"/><path d="m488.724 404.508h-49.802c-3.239 0-5.866-2.626-5.866-5.866 0-3.239 2.626-5.866 5.866-5.866h49.802c3.239 0 5.866 2.626 5.866 5.866s-2.626 5.866-5.866 5.866z"/><path d="m463.824 371.978c-3.239 0-5.866-2.626-5.866-5.866v-230.993c0-3.24 2.626-5.866 5.866-5.866 3.239 0 5.866 2.626 5.866 5.866v230.993c-.001 3.24-2.627 5.866-5.866 5.866z"/><path d="m463.824 452.368c-2.165 0-4.155-1.193-5.175-3.103l-42.312-79.245c-.453-.85-.691-1.799-.691-2.763v-275.892c0-17.383 14.143-31.526 31.526-31.526h33.301c17.383 0 31.526 14.143 31.526 31.526v275.892c0 .964-.238 1.912-.691 2.763l-42.311 79.245c-1.019 1.91-3.008 3.103-5.173 3.103zm-36.446-86.579 36.446 68.259 36.445-68.259v-274.424c0-10.915-8.88-19.795-19.795-19.795h-33.301c-10.915 0-19.795 8.88-19.795 19.795z"/></g><path d="m5.882 119.512-.016-13.517c-.026-22.58 18.426-41.076 41.006-41.102l300.455-.35c22.58-.026 41.076 18.427 41.102 41.007l.35 300.455c.026 22.58-18.427 41.076-41.007 41.102l-300.455.35c-22.58.026-41.076-18.427-41.102-41.007l-.282-242.711z" fill="#a4cff2"/><path d="m362.217 67.347v377.095c12.325-4.689 21.855-15.158 25.232-28.052v-319.657c-2.99-13.444-12.618-24.452-25.232-29.386z" fill="#7babf1"/><path d="m103.029 239.749-39.838.046c-16.812.02-30.584-13.72-30.603-30.532l-.102-87.947c-.02-16.812 13.72-30.584 30.532-30.603l87.947-.102c16.812-.02 30.584 13.72 30.603 30.532l.102 87.947c.02 16.812-13.72 30.584-30.532 30.603l-4.131.005z" fill="#d3e6f8"/><path d="m156.93 90.161v148.282c13.378-2.155 23.913-13.069 25.504-26.615v-94.038c-1.161-13.992-11.843-25.38-25.504-27.629z" fill="#a4cff2"/><path d="m107.392 197.528c-3.239 0-5.866-2.626-5.866-5.866v-54.932c0-3.24 2.626-5.866 5.866-5.866 3.239 0 5.866 2.626 5.866 5.866v54.932c0 3.24-2.627 5.866-5.866 5.866z" fill="#4c4372"/><path d="m134.859 170.061h-54.933c-3.239 0-5.866-2.626-5.866-5.866s2.626-5.866 5.866-5.866h54.933c3.239 0 5.866 2.626 5.866 5.866s-2.627 5.866-5.866 5.866z" fill="#4c4372"/><path d="m103.029 421.343-39.838.046c-16.812.02-30.584-13.72-30.603-30.532l-.102-87.947c-.02-16.812 13.72-30.584 30.532-30.603l87.947-.102c16.812-.02 30.584 13.72 30.603 30.532l.102 87.947c.02 16.812-13.72 30.584-30.532 30.603l-4.131.005z" fill="#d3e6f8"/><path d="m156.93 272.615v148.282c13.378-2.155 23.913-13.069 25.504-26.615v-94.037c-1.161-13.993-11.843-25.381-25.504-27.63z" fill="#a4cff2"/><path d="m87.97 371.937c-1.501 0-3.002-.573-4.147-1.718-2.291-2.291-2.291-6.005 0-8.295l38.843-38.843c2.289-2.291 6.005-2.291 8.294 0 2.291 2.291 2.291 6.005 0 8.296l-38.843 38.843c-1.144 1.144-2.646 1.717-4.147 1.717z" fill="#4c4372"/><path d="m126.814 371.937c-1.501 0-3.003-.573-4.147-1.718l-38.843-38.843c-2.291-2.291-2.291-6.005 0-8.296 2.289-2.291 6.005-2.291 8.295 0l38.843 38.843c2.291 2.291 2.291 6.005 0 8.295-1.146 1.146-2.648 1.719-4.148 1.719z" fill="#4c4372"/><path d="m63.154 427.255c-9.683 0-18.81-3.787-25.705-10.667-6.906-6.89-10.716-16.026-10.727-25.724l-.102-87.947c-.011-9.698 3.777-18.842 10.667-25.749 6.89-6.906 16.026-10.716 25.723-10.727l87.948-.102h.043c20.071 0 36.409 16.315 36.432 36.391l.102 87.947c.012 9.698-3.777 18.842-10.667 25.748s-16.026 10.716-25.724 10.727l-87.947.102c-.015.001-.029.001-.043.001zm87.846-149.185c-.011 0-.019 0-.03 0l-87.947.102c-6.564.008-12.755 2.593-17.432 7.281s-7.248 10.885-7.24 17.449l.102 87.947c.008 6.565 2.593 12.755 7.281 17.432 4.68 4.67 10.867 7.241 17.42 7.241h.03l39.838-.047 48.11-.056c6.564-.008 12.755-2.594 17.432-7.281 4.677-4.688 7.248-10.885 7.24-17.449l-.102-87.948c-.017-13.608-11.095-24.671-24.702-24.671z" fill="#4c4372"/><path d="m283.52 239.749-39.838.046c-16.812.02-30.584-13.72-30.603-30.532l-.102-87.947c-.02-16.812 13.72-30.584 30.532-30.603l87.947-.102c16.812-.02 30.584 13.72 30.603 30.532l.102 87.947c.02 16.812-13.72 30.584-30.532 30.603l-4.131.005z" fill="#d3e6f8"/><path d="m336.44 90.161v148.282c13.378-2.155 23.913-13.069 25.504-26.615v-94.038c-1.16-13.992-11.842-25.38-25.504-27.629z" fill="#a4cff2"/><path d="m315.351 170.061h-54.933c-3.239 0-5.866-2.626-5.866-5.866s2.626-5.866 5.866-5.866h54.933c3.239 0 5.866 2.626 5.866 5.866-.001 3.24-2.627 5.866-5.866 5.866z" fill="#4c4372"/><path d="m243.646 245.661c-9.683 0-18.81-3.787-25.705-10.667-6.906-6.89-10.716-16.026-10.727-25.724l-.102-87.947c-.012-9.698 3.777-18.842 10.667-25.748s16.026-10.716 25.724-10.727l87.948-.102h.043c20.071 0 36.409 16.315 36.432 36.391l.102 87.947c.011 9.698-3.777 18.842-10.667 25.749-6.89 6.906-16.026 10.716-25.724 10.727l-87.948.102c-.015-.001-.029-.001-.043-.001zm39.874-5.912h.009zm47.972-143.272c-.01 0-.019 0-.03 0l-87.947.102c-6.565.008-12.755 2.593-17.432 7.281s-7.248 10.885-7.24 17.449l.102 87.947c.008 6.565 2.593 12.755 7.282 17.432 4.68 4.67 10.866 7.241 17.419 7.241h.03l87.948-.102c6.564-.008 12.755-2.594 17.432-7.281 4.677-4.688 7.248-10.885 7.241-17.449l-.102-87.947c-.018-13.611-11.097-24.673-24.703-24.673z" fill="#4c4372"/><path d="m283.52 421.343-39.838.046c-16.812.02-30.584-13.72-30.603-30.532l-.102-87.947c-.02-16.812 13.72-30.584 30.532-30.603l87.947-.102c16.812-.02 30.584 13.72 30.603 30.532l.102 87.947c.02 16.812-13.72 30.584-30.532 30.603l-4.131.005z" fill="#fd919e"/><path d="m336.44 272.615v148.282c13.378-2.155 23.913-13.069 25.504-26.615v-94.037c-1.16-13.993-11.842-25.381-25.504-27.63z" fill="#e8677d"/><path d="m315.351 343.687h-54.933c-3.239 0-5.866-2.626-5.866-5.866s2.626-5.866 5.866-5.866h54.933c3.239 0 5.866 2.626 5.866 5.866-.001 3.24-2.627 5.866-5.866 5.866z" fill="#4c4372"/><path d="m315.351 362.325h-54.933c-3.239 0-5.866-2.626-5.866-5.866s2.626-5.866 5.866-5.866h54.933c3.239 0 5.866 2.626 5.866 5.866-.001 3.239-2.627 5.866-5.866 5.866z" fill="#4c4372"/><path d="m243.646 427.255c-9.683 0-18.81-3.787-25.705-10.667-6.906-6.89-10.716-16.026-10.727-25.724l-.102-87.947c-.012-9.698 3.777-18.842 10.667-25.749 6.89-6.906 16.026-10.716 25.724-10.727l87.948-.102h.043c20.071 0 36.409 16.315 36.432 36.391l.102 87.947c.011 9.698-3.777 18.842-10.667 25.748s-16.026 10.716-25.724 10.727l-87.948.102c-.015.001-.029.001-.043.001zm87.846-149.185c-.01 0-.019 0-.03 0l-87.947.102c-6.565.008-12.755 2.593-17.432 7.281s-7.248 10.885-7.24 17.449l.102 87.947c.008 6.565 2.593 12.755 7.282 17.432 4.68 4.67 10.866 7.241 17.419 7.241h.03l39.838-.047 48.109-.056c6.564-.008 12.755-2.594 17.432-7.281 4.677-4.688 7.248-10.885 7.241-17.449l-.102-87.948c-.017-13.608-11.096-24.671-24.702-24.671z" fill="#4c4372"/><path d="m47.269 453.323c-12.468 0-24.221-4.878-33.103-13.739-8.896-8.874-13.802-20.639-13.816-33.126l-.334-286.939-.016-13.517c-.014-12.488 4.864-24.264 13.739-33.159 8.874-8.895 20.639-13.802 33.126-13.816l300.455-.35h.055c12.467 0 24.221 4.878 33.102 13.739 8.896 8.874 13.802 20.639 13.816 33.126l.35 300.455c.03 25.872-20.995 46.945-46.866 46.975l-300.454.35c-.016.001-.035.001-.054.001zm300.107-382.914c-.014 0-.028 0-.042 0l-300.455.35c-9.353.011-18.174 3.694-24.835 10.371s-10.324 15.505-10.313 24.859l.016 13.517.334 286.938c.01 9.354 3.694 18.174 10.37 24.835 6.667 6.651 15.48 10.313 24.818 10.313h.042l300.454-.35c19.404-.022 35.17-15.827 35.148-35.23l-.35-300.455c-.01-9.354-3.694-18.174-10.37-24.835-6.666-6.651-15.479-10.313-24.817-10.313z" fill="#4c4372"/><path d="m63.154 245.661c-9.683 0-18.81-3.787-25.705-10.667-6.906-6.89-10.716-16.026-10.727-25.724l-.102-87.947c-.011-9.698 3.777-18.842 10.667-25.748s16.026-10.716 25.723-10.727l87.948-.102h.043c20.071 0 36.409 16.315 36.432 36.391l.102 87.947c.012 9.698-3.777 18.842-10.667 25.749-6.89 6.906-16.026 10.716-25.724 10.727l-87.947.102c-.015-.001-.029-.001-.043-.001zm39.874-5.912h.01zm47.972-143.272c-.011 0-.019 0-.03 0l-87.947.102c-6.564.008-12.755 2.593-17.432 7.281s-7.248 10.885-7.24 17.449l.102 87.947c.008 6.565 2.593 12.755 7.281 17.432 4.687 4.677 10.876 7.246 17.449 7.241l87.947-.102c6.564-.008 12.755-2.594 17.432-7.281s7.248-10.885 7.24-17.449l-.102-87.947c-.015-13.611-11.093-24.673-24.7-24.673z" fill="#4c4372"/></svg>