<svg viewBox="0 0 48 48" xmlns="http://www.w3.org/2000/svg"><path d="m28 34a5 5 0 1 1 -6.37-7.4c4.59-2.6 9.59 3.11 6.37 7.4z" fill="#f6ccaf"/><path d="m28.4 33.37c-4.27 2.46-9.25-2.47-6.77-6.77a5 5 0 0 1 6.77 6.77z" fill="#ffdec7"/><path d="m21.42 36.31a11 11 0 0 0 -7.22 5.69h-13.2c0-11.09 14.65-15.2 20.42-5.69z" fill="#db5669"/><path d="m17 26a5 5 0 1 1 -7.39-4.39 5 5 0 0 1 7.39 4.39z" fill="#f6ccaf"/><path d="m16.39 28.39a5 5 0 0 1 -6.78-6.78 5 5 0 0 1 6.78 6.78z" fill="#ffdec7"/><path d="m47 42h-13.2a11 11 0 0 0 -7.22-5.69c5.77-9.5 20.42-5.41 20.42 5.69z" fill="#db5669"/><path d="m20.13 34.59a12.81 12.81 0 0 0 -7.07 5.41h-5.72a3.46 3.46 0 0 1 -3.16-5 10.3 10.3 0 0 1 1.12-1.73 11 11 0 0 1 14.83 1.32z" fill="#f26674"/><path d="m46.82 40h-11.82a12.93 12.93 0 0 0 -6.63-5.25 11.08 11.08 0 0 1 1-1.48 11 11 0 0 1 17.45 6.73z" fill="#f26674"/><path d="m41 26a5 5 0 1 1 -7.39-4.39 5 5 0 0 1 7.39 4.39z" fill="#f6ccaf"/><path d="m40.39 28.39a5 5 0 0 1 -6.78-6.78 5 5 0 0 1 6.78 6.78z" fill="#ffdec7"/><path d="m35 47h-22a10.92 10.92 0 0 1 1.2-5c5.29-10.3 20.8-6.47 20.8 5z" fill="#6fabe6"/><path d="m34.82 45h-15.48a3.46 3.46 0 0 1 -3.16-5 10.18 10.18 0 0 1 1.12-1.78 11 11 0 0 1 17.52 6.78z" fill="#82bcf4"/><path d="m43 5v6a4 4 0 0 1 -4 4h-9.93a2 2 0 0 0 -1.66.89l-1.75 2.61a2 2 0 0 1 -3.32 0c-1.64-2.44-2-3.5-3.41-3.5h-9.93a4 4 0 0 1 -4-4v-6a4 4 0 0 1 4-4h30a4 4 0 0 1 4 4z" fill="#edebf2"/><path d="m25.34 16.5a7.9 7.9 0 0 0 -6.55-3.5h-6.79a4 4 0 0 1 -4-4c0-6.41-.17-6.71.53-7.95a4 4 0 0 0 -3.53 3.95v6a4 4 0 0 0 4 4h9.93a2 2 0 0 1 1.66.89l1.75 2.61a2 2 0 0 0 3.32 0c1.34-2.05.63-.56-.32-2z" fill="#dad7e5"/><g fill="#fc6"><path d="m27 6h-1.61l-.39-1.32a1 1 0 0 0 -1.9 0l-.49 1.32h-1.61a1 1 0 0 0 -.62 1.78l1.29 1-.62 1.86a1 1 0 0 0 .82 1.36c.59.08.82-.24 2.13-1.29 1.39 1.11 1.69 1.51 2.37 1.24 1.15-.47.38-1.84 0-3.1l1.29-1a1 1 0 0 0 -.66-1.85z"/><path d="m16 6h-1.61l-.39-1.32a1 1 0 0 0 -1.9 0l-.49 1.32h-1.61a1 1 0 0 0 -.62 1.78l1.29 1-.62 1.86a1 1 0 0 0 .82 1.36c.58.08.79-.21 2.13-1.29 1.39 1.11 1.69 1.51 2.37 1.24 1.15-.47.38-1.84 0-3.1l1.29-1a1 1 0 0 0 -.66-1.85z"/><path d="m38.94 6.67c-.29-.82-.94-.67-2.55-.67-.33-1-.45-2-1.39-2s-.91.57-1.39 2c-1.37 0-2.25-.2-2.55.67s.37 1.15 1.61 2.15c-.79 2.36-.59 1.79-.63 2a1 1 0 0 0 .83 1.18c.6.08.77-.2 2.13-1.29 1.22 1 1.53 1.31 2 1.32a1 1 0 0 0 .93-.65c.18-.46 0-.66-.59-2.53l1.29-1a1 1 0 0 0 .31-1.18z"/></g><path d="m31 45v2h-2v-2a1 1 0 0 1 2 0z" fill="#5b9ad8"/><path d="m19 45v2h-2v-2a1 1 0 0 1 2 0z" fill="#5b9ad8"/><path d="m7 40v2h-2v-2a1 1 0 0 1 2 0z" fill="#c4455e"/><path d="m43 40v2h-2v-2a1 1 0 0 1 2 0z" fill="#c4455e"/></svg>