<svg viewBox="0 0 48 48" xmlns="http://www.w3.org/2000/svg"><rect fill="#505572" height="20" rx="2" width="8" x="2" y="26"/><path d="m10 29h14a3 3 0 0 1 3 3 3 3 0 0 1 -3 3h-14a0 0 0 0 1 0 0v-6a0 0 0 0 1 0 0z" fill="#cc8679"/><path d="m10 42 7.1554 3.5777a4 4 0 0 0 1.7889.4223h7.8446a4 4 0 0 0 2.2188-.6718l15.6515-10.4343a3.0111 3.0111 0 0 0 1.3408-2.5054 3.0111 3.0111 0 0 0 -4.5892-2.5644l-8.4108 5.1759h-23z" fill="#cc8679"/><circle cx="6" cy="31" fill="#8491c1" r="1"/><path d="m26 7h-4s-7 4-7 11v3a4 4 0 0 0 4 4h10a4 4 0 0 0 4-4v-3c0-7-7-11-7-11z" fill="#4ac6b7"/><path d="m25 20h-3a1 1 0 0 1 0-2h3v-1h-2a2.0023 2.0023 0 0 1 -2-2v-1a2.0023 2.0023 0 0 1 2-2h3a1 1 0 0 1 0 2h-3v1h2a2.0023 2.0023 0 0 1 2 2v1a2.0023 2.0023 0 0 1 -2 2z" fill="#505572"/><path d="m24 14a1 1 0 0 1 -1-1v-1a1 1 0 0 1 2 0v1a1 1 0 0 1 -1 1z" fill="#505572"/><path d="m24 21a1 1 0 0 1 -1-1v-1a1 1 0 0 1 2 0v1a1 1 0 0 1 -1 1z" fill="#505572"/><path d="m28 3s-1-1-4-1-4 1-4 1l2 4h4z" fill="#29a892"/><g fill="#231f20"><circle cx="6" cy="31" r="1"/><path d="m44.9458 28.8877a3.9634 3.9634 0 0 0 -4.0591.085l-8.1699 5.0273h-5.2534a3.999 3.999 0 0 0 -3.4634-6h-13a3.0033 3.0033 0 0 0 -3-3h-4a3.0033 3.0033 0 0 0 -3 3v16a3.0033 3.0033 0 0 0 3 3h4a3.0033 3.0033 0 0 0 3-3v-.3818l5.7085 2.8544a5.0352 5.0352 0 0 0 2.2358.5274h7.8447a4.9779 4.9779 0 0 0 2.7734-.84l15.651-10.4344a4.01 4.01 0 0 0 -.2676-6.8379zm-35.9458.1123v15a1.001 1.001 0 0 1 -1 1h-4a1.001 1.001 0 0 1 -1-1v-16a1.001 1.001 0 0 1 1-1h4a1.001 1.001 0 0 1 1 1zm35.1045 5.0615-15.6519 10.4346a2.9822 2.9822 0 0 1 -1.6635.5039h-7.8448a3.0181 3.0181 0 0 1 -1.3418-.3164l-6.6025-3.3018v-11.3818h13a2 2 0 0 1 0 4h-5.4585a1 1 0 0 0 0 2h14.4585a1.0014 1.0014 0 0 0 .5239-.1484l8.4106-5.1758a2.011 2.011 0 0 1 2.17 3.3857z"/><path d="m19 26h10a5.0059 5.0059 0 0 0 5-5v-3c0-6.0972-4.7631-10.0126-6.7044-11.3549l1.5989-3.1979a1.0006 1.0006 0 0 0 -.1875-1.1542c-.2158-.2159-1.457-1.293-4.707-1.293s-4.4912 1.0771-4.707 1.293a1.0006 1.0006 0 0 0 -.1875 1.1543l1.5989 3.1979c-1.9413 1.3422-6.7044 5.2576-6.7044 11.3548v3a5.0059 5.0059 0 0 0 5 5zm5-23a7.6068 7.6068 0 0 1 2.6807.4023l-1.2989 2.5977h-2.7636l-1.2989-2.5977a7.6068 7.6068 0 0 1 2.6807-.4023zm-8 15c0-5.6611 5.16-9.2793 6.2837-10h3.4341c1.124.7168 6.2822 4.3164 6.2822 10v3a3.0033 3.0033 0 0 1 -3 3h-10a3.0033 3.0033 0 0 1 -3-3z"/><path d="m22 18a1 1 0 0 0 0 2h1a1 1 0 0 0 2 0 2.0023 2.0023 0 0 0 2-2v-1a2.0023 2.0023 0 0 0 -2-2h-2v-1h3a1 1 0 0 0 0-2h-1a1 1 0 0 0 -2 0 2.0023 2.0023 0 0 0 -2 2v1a2.0023 2.0023 0 0 0 2 2h2v1z"/></g></svg>