<svg enable-background="new 0 0 115 115" viewBox="0 0 115 115" xmlns="http://www.w3.org/2000/svg"><path d="m75.555 0h-51.616c-4.344 0-7.865 3.522-7.865 7.865v99.27c0 4.344 3.521 7.865 7.865 7.865h60.722c4.344 0 7.865-3.521 7.865-7.865v-91.667z" fill="#ffeead"/><path d="m90.67 27.239c-.552 0-1.085.079-1.587.225-2.176.634-3.765 2.532-3.765 4.758l.012 67.668c0 1.58.804 4.794 2.046 7.238l.001.002c.307.603.641 1.152.996 1.625.051.069.102.14.154.205.079.098.16.186.241.276.073.081.147.16.222.233.074.071.148.138.223.201.088.075.177.141.266.203.068.047.137.095.206.135.105.061.212.107.319.149.058.023.115.052.173.069.167.05.336.081.508.081.171 0 .34-.031.508-.081.012-.004.025-.002.038-.006.046-.014.09-.045.135-.063.107-.043.214-.089.319-.15.07-.04.138-.088.207-.136.064-.045.127-.095.189-.145.284-.813.447-1.683.447-2.593v-79.582c-.581-.201-1.206-.312-1.858-.312z" fill="#c9b77d"/><path d="m75.555 0v7.603c0 4.344 3.521 7.865 7.865 7.865h9.106z" fill="#96ceb4"/><path d="m31.536 25.99h-4.019c-.943 0-1.707.764-1.707 1.707v4.019c0 .942.764 1.707 1.707 1.707h4.019c.943 0 1.707-.764 1.707-1.707v-4.019c0-.943-.764-1.707-1.707-1.707z" fill="#fff"/><path d="m31.536 25.209h-4.019c-1.372 0-2.488 1.116-2.488 2.488v4.018c0 1.372 1.116 2.488 2.488 2.488h4.019c1.371 0 2.487-1.116 2.487-2.488v-4.018c.001-1.372-1.115-2.488-2.487-2.488zm.927 6.506c0 .511-.415.927-.926.927h-4.019c-.511 0-.927-.416-.927-.927v-4.018c0-.511.416-.927.927-.927h4.019c.511 0 .926.416.926.927z" fill="#71a58a"/><path d="m42.596 23.784c-.434-.741-1.389-.992-2.135-.559-3.091 1.806-5.703 4.401-7.552 7.465-1.038-1.376-2.31-2.57-3.763-3.523-.719-.472-1.687-.271-2.161.448-.473.721-.271 1.689.45 2.161 1.8 1.181 3.25 2.829 4.191 4.765.262.538.807.878 1.404.878h.036c.61-.014 1.155-.383 1.398-.942 1.537-3.564 4.225-6.602 7.572-8.558.744-.434.995-1.39.56-2.135z" fill="#ff6f69"/><path d="m31.536 41.087h-4.019c-.943 0-1.707.764-1.707 1.707v4.019c0 .943.764 1.707 1.707 1.707h4.019c.943 0 1.707-.764 1.707-1.707v-4.019c0-.942-.764-1.707-1.707-1.707z" fill="#fff"/><path d="m31.536 40.306h-4.019c-1.372 0-2.488 1.116-2.488 2.488v4.02c0 1.371 1.116 2.486 2.488 2.486h4.019c1.371 0 2.487-1.116 2.487-2.486v-4.02c.001-1.372-1.115-2.488-2.487-2.488zm.927 6.508c0 .511-.415.925-.926.925h-4.019c-.511 0-.927-.415-.927-.925v-4.02c0-.511.416-.927.927-.927h4.019c.511 0 .926.416.926.927z" fill="#71a58a"/><path d="m42.596 38.881c-.434-.744-1.389-.992-2.136-.559-3.091 1.808-5.702 4.402-7.55 7.464-1.039-1.376-2.31-2.57-3.764-3.523-.719-.473-1.687-.27-2.161.448-.473.721-.271 1.689.45 2.161 1.801 1.181 3.25 2.829 4.191 4.767.261.538.807.878 1.404.878h.035c.61-.014 1.157-.383 1.399-.943 1.535-3.561 4.225-6.6 7.573-8.558.743-.434.994-1.391.559-2.135z" fill="#ff6f69"/><path d="m31.536 56.185h-4.019c-.943 0-1.707.764-1.707 1.707v4.019c0 .943.764 1.707 1.707 1.707h4.019c.943 0 1.707-.764 1.707-1.707v-4.019c0-.943-.764-1.707-1.707-1.707z" fill="#fff"/><path d="m31.536 55.405h-4.019c-1.372 0-2.488 1.116-2.488 2.488v4.018c0 1.372 1.116 2.488 2.488 2.488h4.019c1.371 0 2.487-1.116 2.487-2.488v-4.018c.001-1.372-1.115-2.488-2.487-2.488zm.927 6.506c0 .51-.415.927-.926.927h-4.019c-.511 0-.927-.416-.927-.927v-4.018c0-.511.416-.927.927-.927h4.019c.511 0 .926.416.926.927z" fill="#71a58a"/><path d="m42.596 53.98c-.434-.742-1.389-.992-2.135-.559-3.091 1.806-5.703 4.401-7.552 7.465-1.038-1.377-2.31-2.57-3.763-3.523-.719-.473-1.687-.27-2.161.448-.473.721-.271 1.689.45 2.161 1.8 1.182 3.25 2.829 4.191 4.765.262.538.807.878 1.404.878h.036c.61-.014 1.155-.383 1.398-.942 1.537-3.564 4.225-6.602 7.572-8.558.744-.434.995-1.39.56-2.135z" fill="#ff6f69"/><path d="m31.536 71.283h-4.019c-.943 0-1.707.764-1.707 1.707v4.019c0 .943.764 1.707 1.707 1.707h4.019c.943 0 1.707-.764 1.707-1.707v-4.019c0-.943-.764-1.707-1.707-1.707z" fill="#fff"/><path d="m31.536 70.502h-4.019c-1.372 0-2.488 1.116-2.488 2.488v4.02c0 1.37 1.116 2.486 2.488 2.486h4.019c1.371 0 2.487-1.116 2.487-2.486v-4.02c.001-1.372-1.115-2.488-2.487-2.488zm.927 6.507c0 .511-.415.925-.926.925h-4.019c-.511 0-.927-.415-.927-.925v-4.02c0-.511.416-.927.927-.927h4.019c.511 0 .926.416.926.927z" fill="#71a58a"/><path d="m42.596 69.077c-.434-.745-1.389-.992-2.136-.56-3.091 1.808-5.702 4.402-7.55 7.465-1.039-1.377-2.31-2.57-3.764-3.523-.719-.473-1.687-.271-2.161.448-.473.721-.271 1.689.45 2.161 1.801 1.181 3.25 2.829 4.191 4.767.261.538.807.878 1.404.878h.035c.61-.014 1.157-.383 1.399-.944 1.535-3.561 4.225-6.6 7.573-8.558.743-.433.994-1.391.559-2.134z" fill="#ff6f69"/><path d="m31.536 86.381h-4.019c-.943 0-1.707.764-1.707 1.707v4.019c0 .943.764 1.707 1.707 1.707h4.019c.943 0 1.707-.764 1.707-1.707v-4.019c0-.943-.764-1.707-1.707-1.707z" fill="#fff"/><path d="m31.536 85.6h-4.019c-1.372 0-2.488 1.116-2.488 2.488v4.018c0 1.372 1.116 2.488 2.488 2.488h4.019c1.371 0 2.487-1.116 2.487-2.488v-4.018c.001-1.372-1.115-2.488-2.487-2.488zm.927 6.506c0 .511-.415.927-.926.927h-4.019c-.511 0-.927-.416-.927-.927v-4.018c0-.511.416-.927.927-.927h4.019c.511 0 .926.416.926.927z" fill="#71a58a"/><path d="m42.596 84.175c-.434-.742-1.389-.994-2.135-.559-3.091 1.806-5.703 4.401-7.552 7.465-1.038-1.376-2.31-2.57-3.763-3.523-.719-.472-1.687-.271-2.161.448-.473.721-.271 1.689.45 2.161 1.8 1.181 3.25 2.829 4.191 4.765.262.538.807.878 1.404.878h.036c.61-.014 1.155-.383 1.398-.942 1.537-3.564 4.225-6.602 7.572-8.558.744-.434.995-1.39.56-2.135z" fill="#ff6f69"/><g fill="#96ceb4"><path d="m79.813 28.268h-33.038c-.985 0-1.791.806-1.791 1.791v.272c0 .985.806 1.791 1.791 1.791h33.038c.985 0 1.791-.806 1.791-1.791v-.272c0-.985-.806-1.791-1.791-1.791z"/><path d="m79.813 43.045h-33.038c-.985 0-1.791.806-1.791 1.791v.273c0 .985.806 1.791 1.791 1.791h33.038c.985 0 1.791-.806 1.791-1.791v-.273c0-.985-.806-1.791-1.791-1.791z"/><path d="m79.813 57.821h-33.038c-.985 0-1.791.806-1.791 1.791v.272c0 .985.806 1.791 1.791 1.791h33.038c.985 0 1.791-.806 1.791-1.791v-.272c0-.985-.806-1.791-1.791-1.791z"/><path d="m79.813 72.598h-33.038c-.985 0-1.791.806-1.791 1.791v.273c0 .985.806 1.791 1.791 1.791h33.038c.985 0 1.791-.806 1.791-1.791v-.273c0-.985-.806-1.791-1.791-1.791z"/><path d="m79.813 87.374h-33.038c-.985 0-1.791.806-1.791 1.791v.272c0 .985.806 1.791 1.791 1.791h33.038c.985 0 1.791-.806 1.791-1.791v-.272c0-.985-.806-1.791-1.791-1.791z"/></g><path d="m98.915 26.92c0-2.741-2.41-4.983-5.354-4.982-2.944 0-5.353 2.243-5.352 4.984l.011 67.668c0 2.74 2.411 10.418 5.355 10.418 2.944-.001 5.352-7.679 5.351-10.419z" fill="#ff6f69"/><path d="m98.926 93.674-10.706.001v.915c0 2.741 2.411 10.418 5.355 10.418 2.944-.001 5.352-7.679 5.351-10.419z" fill="#ffeead"/><path d="m90.266 101.829c.913 1.796 2.062 3.179 3.309 3.179s2.396-1.384 3.308-3.181z" fill="#99734a"/><path d="m98.915 26.92c0-2.741-2.41-4.983-5.354-4.982-2.944 0-5.353 2.243-5.352 4.984l.001 7.262 10.706-.002z" fill="#96ceb4"/><path d="m88.21 31.767h10.706v2.416h-10.706z" fill="#ffeead"/></svg>