<svg height="73" viewBox="0 0 73 73" width="73" xmlns="http://www.w3.org/2000/svg"><g fill="none" fill-rule="nonzero"><rect fill="#fff" height="71" rx="14" stroke="#34180a" stroke-width="2" width="71" x="1" y="1"/><g transform="translate(15 14)"><path d="m41.3153241 12.5251003-7.9358636-7.95096071v31.86190881h10.6205395v-17.4551838c0-2.4236697-.9665065-4.7471759-2.6846759-6.4557643z" fill="#ffb782"/><path d="m6.20288744 30.6303315-5.99936655-15.5744299c-.60214313-1.5634238.17681065-3.3196263 1.74110534-3.9220598l28.31698697-10.90738487c1.5634237-.6021432 3.3196262.17681058 3.9217694 1.74110534l5.9993666 15.57442993c.6021432 1.5634238-.1768106 3.3196263-1.7411054 3.9220597l-28.3161159 10.907385c-1.56429479.6021431-3.31962633-.1776816-3.92264046-1.7411054z" fill="#de4c3c"/><path d="m36.3454656 7.57817782-33.95257079 13.16063128 2.26079499 5.8687184 33.9540224-13.1545345z" fill="#7a4930"/><path d="m.00029033 19.7464633v-16.68958515c0-1.67578125 1.35874153-3.03452281 3.03452278-3.03452281h30.34464739c1.6757813 0 3.0345228 1.35874156 3.0345228 3.03452281v16.68958515c0 1.6757812-1.3587415 3.0345227-3.0345228 3.0345227h-30.34464739c-1.67578125 0-3.03452278-1.3587415-3.03452278-3.0345227z" fill="#4398d1"/><path d="m33.3794605.02235534h-3.2241079l-22.7586307 22.75863066h25.9827386c1.6757813 0 3.0345228-1.3587415 3.0345228-3.0345227v-16.68958515c0-1.67578125-1.3587415-3.03452281-3.0345228-3.03452281z" fill="#3e8cc7"/><g fill="#5eb3d1"><path d="m3.03481311 12.1601562h3.03452281v1.5172615h-3.03452281z"/><path d="m3.03481311 16.7119404h3.03452281v1.5172615h-3.03452281z"/><path d="m16.6898755 16.7119404h3.0345227v1.5172615h-3.0345227z"/><path d="m7.58659736 12.1601562h3.03423254v1.5172615h-3.03423254z"/><path d="m12.1380912 12.1601562h3.0345228v1.5172615h-3.0345228z"/><path d="m16.6898755 12.1601562h3.0345227v1.5172615h-3.0345227z"/><path d="m31.1035684 3.05687815h1.5172615v2.27589212h-1.5172615z"/><path d="m28.0690456 3.05687815h1.5172614v2.27589212h-1.5172614z"/><path d="m25.0345228 3.05687815h1.5172614v2.27589212h-1.5172614z"/><path d="m22.0002903 3.05687815h1.5169711v2.27589212h-1.5169711z"/></g><path d="m30.3449377 36.4360484h13.6550623v7.5860166h-13.6550623z" fill="#88b337"/><path d="m28.1184016 13.7267736c-1.2867399-1.2820945-3.3689822-1.2783203-4.6510768.0084196-1.2397066 1.2440614-1.2826753 3.2429793-.0978411 4.5395904l6.2168233 6.7820945c-1.8685599 3.2702703-1.7887194 7.3029456.2070049 10.4968592l.5516258.8823111h9.8619088v-10.6205395z" fill="#ffb782"/><path d="m32.6208299 38.7119404h1.5172613v1.5172615h-1.5172613z" fill="#6b962a"/><path d="m3.03481311 7.91205659v-3.6413112c0-.67066093.54320632-1.21386724 1.21386717-1.21386724h3.64131127c.67066094 0 1.21357686.54320631 1.21357686 1.21386724v3.6413112c0 .67066086-.54291592 1.21386717-1.21357686 1.21386717h-3.64131127c-.67066085 0-1.21386717-.54320631-1.21386717-1.21386717z" fill="#fdb62f"/><path d="m3.03481311 5.33277027h2.27589213v1.51726137h-2.27589213z" fill="#fd7b2f"/><path d="m6.82796668 5.33277027h2.27560173v1.51726137h-2.27560173z" fill="#fd7b2f"/><path d="m39.4482158 25.8155089c-.2009079 0-.3942673-.0798406-.5362384-.2223923l-3.0345228-3.0345228c-.2912004-.3010716-.2827808-.7812765.0191617-1.0727672.2943941-.2836518.7600824-.2836518 1.0536054 0l3.0345228 3.0345228c.2958456.2967167.2958456.7769215 0 1.0727672-.142842.1425517-.3353304.2223923-.5365287.2223923z" fill="#f2a46f"/></g></g></svg>